<svg width="15" height="15" viewBox="0 0 15 15" fill="none" xmlns="http://www.w3.org/2000/svg">
<path d="M3.37883 -7.77709e-06L13.1288 -8.20327e-06C13.4272 -8.21632e-06 13.7133 0.118519 13.9243 0.329498C14.1353 0.540476 14.2538 0.826623 14.2538 1.12499L14.2538 10.875C14.2538 11.1734 14.1353 11.4595 13.9243 11.6705C13.7133 11.8815 13.4272 12 13.1288 12C12.8305 12 12.5443 11.8815 12.3333 11.6705C12.1224 11.4595 12.0038 11.1734 12.0038 10.875L12.0038 3.84374L1.92383 13.9209C1.81918 14.0256 1.69495 14.1086 1.55822 14.1652C1.42149 14.2219 1.27494 14.251 1.12695 14.251C0.828065 14.251 0.541421 14.1323 0.330076 13.9209C0.118732 13.7096 -3.61959e-08 13.4229 -4.92606e-08 13.1241C-6.23253e-08 12.8252 0.118732 12.5385 0.330076 12.3272L10.4101 2.24999L3.37883 2.24999C3.08046 2.24999 2.79431 2.13147 2.58333 1.92049C2.37235 1.70951 2.25383 1.42336 2.25383 1.12499C2.25383 0.826624 2.37235 0.540477 2.58333 0.329498C2.79431 0.11852 3.08046 -7.76405e-06 3.37883 -7.77709e-06Z" fill="#2F2F2F"/>
</svg>
