<svg viewBox="0 0 18 21" fill="none" xmlns="http://www.w3.org/2000/svg">
<path d="M18 10.2307C18 10.5321 17.921 10.8213 17.7803 11.0345C17.6397 11.2476 17.4489 11.3674 17.25 11.3674H0.75C0.551088 11.3674 0.360322 11.2476 0.21967 11.0345C0.0790178 10.8213 0 10.5321 0 10.2307C0 9.92918 0.0790178 9.64004 0.21967 9.42686C0.360322 9.21368 0.551088 9.09392 0.75 9.09392H17.25C17.4489 9.09392 17.6397 9.21368 17.7803 9.42686C17.921 9.64004 18 9.92918 18 10.2307ZM0.75 2.27348H17.25C17.4489 2.27348 17.6397 2.15372 17.7803 1.94054C17.921 1.72736 18 1.43822 18 1.13674C18 0.835258 17.921 0.546124 17.7803 0.332944C17.6397 0.119764 17.4489 0 17.25 0H0.75C0.551088 0 0.360322 0.119764 0.21967 0.332944C0.0790178 0.546124 0 0.835258 0 1.13674C0 1.43822 0.0790178 1.72736 0.21967 1.94054C0.360322 2.15372 0.551088 2.27348 0.75 2.27348ZM17.25 18.1878H0.75C0.551088 18.1878 0.360322 18.3076 0.21967 18.5208C0.0790178 18.734 0 19.0231 0 19.3246C0 19.6261 0.0790178 19.9152 0.21967 20.1284C0.360322 20.3416 0.551088 20.4613 0.75 20.4613H17.25C17.4489 20.4613 17.6397 20.3416 17.7803 20.1284C17.921 19.9152 18 19.6261 18 19.3246C18 19.0231 17.921 18.734 17.7803 18.5208C17.6397 18.3076 17.4489 18.1878 17.25 18.1878Z" fill="#444444"/>
</svg>
