<svg width="206" height="210" viewBox="0 0 206 210" fill="none" xmlns="http://www.w3.org/2000/svg">
<path d="M118.297 188.389C124.202 200.647 127.155 206.777 130.848 208.416C134.194 209.902 138.06 209.625 141.161 207.678C144.583 205.529 146.632 199.042 150.731 186.066L200.985 26.9843C204.451 16.0125 206.184 10.5266 204.866 6.98345C203.669 3.76436 201.037 1.28918 197.751 0.291781C194.133 -0.806016 188.764 1.2603 178.026 5.39295L22.3266 65.3126C9.62744 70.1997 3.27786 72.6433 1.34293 76.1906C-0.410321 79.4049 -0.449385 83.2808 1.23873 86.5298C3.10176 90.1154 9.40082 92.6864 21.9989 97.8286L81.335 122.048C83.6141 122.978 84.7536 123.443 85.738 124.122C86.6483 124.751 87.4585 125.513 88.1415 126.383C88.8801 127.324 89.4143 128.433 90.4826 130.65L118.297 188.389Z" fill="#AD0053"/>
</svg>
